<svg width="16" height="17" viewBox="0 0 16 17" fill="none" xmlns="http://www.w3.org/2000/svg">
<path d="M15.3027 7.57619C15.373 7.34181 15.4082 7.09963 15.4082 6.85353C15.4082 6.3008 15.2266 5.76955 14.8984 5.33595C14.9688 5.10158 15.0039 4.85939 15.0039 4.6133C15.0039 4.06056 14.8223 3.52931 14.4941 3.09572C14.5645 2.86134 14.5996 2.61916 14.5996 2.37306C14.5996 1.36525 14 0.457047 13.0703 0.0605631C12.9069 -0.00988887 12.7307 -0.0457966 12.5527 -0.0449057H0.8125C0.466797 -0.0449057 0.1875 0.234391 0.1875 0.580094V7.68947C0.1875 8.03517 0.466797 8.31447 0.8125 8.31447H3.33789L5.01367 14.3848C5.2832 15.3633 6.18164 16.0469 7.19727 16.0469C7.77734 16.0469 8.31836 15.8164 8.71875 15.3945C9.11914 14.9746 9.32422 14.4238 9.29492 13.8438L9.17773 11.4434H13.8633C14.0996 11.4434 14.3301 11.3809 14.5332 11.2617C15.3223 10.8028 15.8125 9.97072 15.8125 9.09377C15.8125 8.54103 15.6309 8.00978 15.3027 7.57619ZM1.59375 6.90627V1.35939H3.17578V6.90627H1.59375ZM13.8438 10.0391H7.70312L7.89062 13.9141C7.90234 14.1465 7.79883 14.3652 7.60547 14.5098C7.48633 14.5977 7.33984 14.6426 7.19336 14.6406C7.00621 14.6388 6.82471 14.5764 6.67609 14.4626C6.52747 14.3489 6.41977 14.19 6.36914 14.0098L4.42578 6.96877V1.35939H12.5391C12.7343 1.44688 12.9001 1.58891 13.0165 1.7684C13.1329 1.94788 13.195 2.15718 13.1953 2.37111C13.1953 2.56056 13.1504 2.74025 13.0605 2.90431L12.7891 3.40041L13.2168 3.7715C13.3372 3.87577 13.4337 4.00476 13.4998 4.14969C13.5658 4.29461 13.5999 4.45207 13.5996 4.61134C13.5996 4.8008 13.5547 4.98048 13.4648 5.14455L13.1934 5.64064L13.6211 6.01173C13.7415 6.11601 13.838 6.245 13.9041 6.38992C13.9701 6.53485 14.0042 6.69231 14.0039 6.85158C14.0039 7.04103 13.959 7.22072 13.8691 7.38478L13.5957 7.88283L14.0234 8.25392C14.1438 8.35819 14.2403 8.48718 14.3064 8.63211C14.3725 8.77704 14.4065 8.93449 14.4062 9.09377C14.4062 9.46681 14.1914 9.82619 13.8438 10.0391Z" fill="#A4A3A9"/>
</svg>
