<svg width="16" height="17" viewBox="0 0 16 17" fill="none" xmlns="http://www.w3.org/2000/svg">
<path d="M15.1152 8.47267C15.4434 8.03908 15.625 7.50783 15.625 6.95509C15.625 6.07814 15.1348 5.24806 14.3457 4.78517C14.1426 4.66602 13.9113 4.60331 13.6758 4.60353H8.99219L9.10938 2.20314C9.13672 1.62306 8.93164 1.07228 8.5332 0.652358C8.33767 0.445382 8.10176 0.280704 7.84007 0.168501C7.57838 0.0562986 7.29645 -0.00104495 7.01172 1.44144e-05C5.99609 1.44144e-05 5.09766 0.683608 4.82812 1.66212L3.15039 7.73634H0.625C0.279297 7.73634 0 8.01564 0 8.36134V15.4707C0 15.8164 0.279297 16.0957 0.625 16.0957H12.3691C12.5488 16.0957 12.7246 16.0606 12.8867 15.9902C13.8164 15.5938 14.416 14.6856 14.416 13.6777C14.416 13.4317 14.3809 13.1895 14.3105 12.9551C14.6387 12.5215 14.8203 11.9902 14.8203 11.4375C14.8203 11.1914 14.7852 10.9492 14.7148 10.7149C15.043 10.2813 15.2246 9.75001 15.2246 9.19728C15.2207 8.95119 15.1855 8.70705 15.1152 8.47267ZM1.40625 14.6895V9.14259H2.98828V14.6895H1.40625ZM13.8359 7.79494L13.4082 8.16603L13.6797 8.66212C13.7691 8.82554 13.8155 9.00904 13.8145 9.19533C13.8145 9.51759 13.6738 9.82423 13.4316 10.0352L13.0039 10.4063L13.2754 10.9024C13.3648 11.0658 13.4112 11.2493 13.4102 11.4356C13.4102 11.7578 13.2695 12.0645 13.0273 12.2754L12.5996 12.6465L12.8711 13.1426C12.9605 13.306 13.0069 13.4895 13.0059 13.6758C13.0059 14.1133 12.748 14.5078 12.3496 14.6875H4.23828V9.08009L6.18164 2.03908C6.23175 1.85861 6.33932 1.69939 6.48805 1.58555C6.63678 1.47172 6.81857 1.40946 7.00586 1.40822C7.1543 1.40822 7.30078 1.45119 7.41797 1.53908C7.61133 1.68361 7.71484 1.90236 7.70312 2.13478L7.51562 6.00978H13.6562C14.0039 6.22267 14.2188 6.58205 14.2188 6.95509C14.2188 7.27736 14.0781 7.58205 13.8359 7.79494Z" fill="#A4A3A9"/>
</svg>
